<svg width="80" height="60" viewBox="0 0 80 60" fill="none" xmlns="http://www.w3.org/2000/svg">
<path d="M0.5 59.5V0.5H79.5V59.5H0.5Z" fill="#00AFCA" stroke="black"/>
<path d="M43.2189 33.2729C46.1913 33.2729 48.6009 29.6585 48.6009 25.1999C48.6009 20.7414 46.1913 17.127 43.2189 17.127C40.2465 17.127 37.8369 20.7414 37.8369 25.1999C37.8369 29.6585 40.2465 33.2729 43.2189 33.2729Z" fill="#FEC50C"/>
<path d="M43.2189 16.0258C43.5389 16.0198 43.6589 15.7198 43.6589 15.3598C43.6589 14.8798 43.2189 12.5938 43.2189 12.5938C43.2189 12.5938 42.7789 14.8798 42.7789 15.3598C42.7789 15.7198 42.8989 16.0258 43.2189 16.0258Z" fill="#FEC50C"/>
<path d="M42.2586 42.688C42.1146 42.7 41.9746 42.728 41.8372 42.794C41.6492 42.832 41.4692 42.93 41.2826 42.976L41.2079 42.994L41.0826 43.012C41.0906 43.064 41.0959 43.116 41.0959 43.168C41.0959 43.222 41.0919 43.274 41.0826 43.318C41.0746 43.36 41.0492 43.412 41.0292 43.444C41.0026 43.488 40.9746 43.526 40.9412 43.55C40.9092 43.574 40.8732 43.584 40.8372 43.588C40.8012 43.59 40.7639 43.588 40.7292 43.568C40.6932 43.55 40.6599 43.516 40.6292 43.476C40.5919 43.49 40.5532 43.5 40.5172 43.506C40.4799 43.512 40.4452 43.512 40.4119 43.506C40.3746 43.49 40.3359 43.472 40.2999 43.45C40.2639 43.428 40.2292 43.4 40.1959 43.368C40.0599 43.488 39.9079 43.602 39.8252 43.812C39.7786 43.908 39.7692 44.018 39.7586 44.132C39.7519 44.272 39.7759 44.42 39.8159 44.55C39.8306 44.588 39.8426 44.412 39.8879 44.388C39.9639 44.294 40.0586 44.226 40.1546 44.188C40.2359 44.126 40.2252 44.192 40.1919 44.288C40.1839 44.338 40.1386 44.528 40.1999 44.432C40.4706 44.252 40.7706 44.216 41.0626 44.182C41.4866 44.116 41.9119 44.102 42.3372 44.094C42.7372 44.102 43.1372 44.11 43.5372 44.132C43.7279 44.14 43.9199 44.204 44.1079 44.156C44.1532 44.138 44.2239 44.134 44.2506 44.094C44.1652 44.02 44.0652 44.018 43.9706 44H43.2079C42.9959 43.968 42.7746 43.964 42.5746 43.844C42.5212 43.812 42.4719 43.736 42.4212 43.818C42.3452 43.858 42.2639 43.886 42.1839 43.894C42.0439 43.91 41.9039 43.866 41.7746 43.788C41.8679 43.594 41.9799 43.424 42.0826 43.244C41.9999 43.224 41.9199 43.198 41.8372 43.168C41.9826 43.018 42.1172 42.848 42.2586 42.688Z" fill="#FEC50C"/>
<path d="M48.4879 44.7606C48.1981 45.0216 47.9769 44.5589 47.7347 44.4201C47.5617 44.561 47.5455 45.0326 47.3839 45.2559C47.1905 45.586 46.9535 45.1637 46.9712 44.838C46.7399 45.1304 46.6229 45.7933 46.2489 45.7048C46.0716 45.4878 45.94 45.0327 45.8046 45.5509C45.6942 45.8043 45.4002 46.1647 45.248 45.7821C45.2009 45.4444 45.088 45.0471 44.9655 45.5837C44.8814 45.9631 44.6114 46.2423 44.3503 46.0762C44.2073 45.9009 44.4649 45.2526 44.2829 45.2987C44.0109 45.5685 43.8528 46.2382 43.4732 46.1846C43.3259 45.9364 43.5627 45.5159 43.401 45.2405C43.2102 45.6079 42.9985 46.1458 42.6684 46.1846C42.5089 45.9906 42.6747 45.4345 42.5728 45.3522C42.2341 45.6569 41.8768 46.1999 41.4508 46.0298C41.6168 45.0774 42.3104 44.7433 42.8937 44.669C43.8973 44.484 44.9531 44.8242 45.9187 44.2809C46.0747 44.1385 46.4527 43.9365 46.3181 43.6062C46.1989 43.3455 46.6282 43.4474 46.6695 43.1428C46.6439 42.757 46.8666 42.8101 47.0841 42.7763C48.0591 42.7132 49.0223 43.0212 49.9944 43.0736C50.0678 43.7841 49.5423 44.283 49.1193 44.0636C48.9173 44.1127 48.6143 43.3667 48.6737 43.9094C48.6329 44.1942 48.6614 44.5704 48.4879 44.7607L48.4879 44.7606ZM40.1919 43.3058C40.4177 43.6157 40.5759 43.2475 40.7869 43.1129C41.4946 42.7478 42.112 42.1097 42.7208 41.4722C43.0896 41.0144 43.4093 40.4207 43.9046 40.2722C44.8708 39.8341 45.8979 39.8872 46.8679 39.4828C47.6065 37.966 48.8609 37.4249 49.9117 36.553C50.1477 36.4431 50.2389 36.1518 50.3142 35.8301C50.7153 34.8803 51.2618 34.0387 51.908 33.4638C52.2138 33.2132 52.5786 33.0688 52.9247 33.1835C52.8999 33.8019 52.6634 34.35 52.3779 34.7777C52.6115 34.77 52.8124 34.5485 53.0485 34.561C53.1295 35.1957 52.6725 35.5278 52.4294 35.923C52.5648 35.9703 53.0835 36.0291 52.8009 36.2326C52.4407 36.6075 52.0293 36.865 51.6968 37.3005C52.0036 37.3832 52.0385 37.481 51.7266 37.6474C51.5577 37.8191 51.2329 37.8791 51.2015 38.2137C51.4333 38.4273 51.0948 38.6394 50.9642 38.7089C50.7146 38.7961 50.4523 38.9588 50.7839 39.2434C50.6585 39.5277 50.3893 39.5883 50.1697 39.5602C50.2363 39.8824 50.3328 40.2429 50.054 40.385C49.4291 41.0937 48.6956 41.6091 47.91 41.727C48.8914 41.8402 49.9023 41.567 50.7409 40.7664C50.8516 40.57 51.4322 40.359 51.1074 40.1939C50.9546 40.0984 50.6268 39.9925 50.6047 39.8176C51.0589 39.3973 51.6312 39.5468 52.1199 39.2971C52.1325 39.0598 51.7482 39.1258 51.6049 39.0717C51.2632 39.0298 51.2832 38.8989 51.6127 38.8505C52.0296 38.6849 52.5018 38.6523 52.8524 38.2446C52.5669 38.0462 52.2078 38.2209 51.9031 38.0588C52.4196 37.7199 53.0288 37.6858 53.4922 37.1766C53.7032 36.8243 53.2218 36.9345 53.0815 36.943C52.7955 37.0177 52.6633 36.8123 52.9882 36.6341C53.5431 36.0205 54.2455 35.6218 54.6353 34.7323C54.7276 34.5331 54.8526 33.9331 54.5581 34.149C54.1709 34.3421 53.8302 34.995 53.389 34.7931C54.2583 33.7824 55.0855 32.6319 55.6797 31.2333C55.7104 30.8299 55.2883 30.7862 55.1784 31.1029C54.6199 31.9102 54.1144 32.863 53.3993 33.3691C54.0842 32.3776 54.6504 31.2036 55.1444 29.9868C55.2503 29.6249 55.535 29.1897 55.3805 28.7878C55.1315 28.4786 54.82 28.7617 54.6906 29.1317C54.2564 29.9818 53.9267 30.9741 53.3684 31.6667C53.8571 30.2673 54.3632 28.7778 54.3756 27.1638C54.3741 26.8316 54.3296 26.3422 54.0288 26.4043C53.7903 26.4684 53.8469 27.0038 53.7486 27.2745C53.5322 28.3772 53.4306 29.5713 52.9866 30.5368C53.0865 29.6408 53.2613 28.7068 53.1271 27.802C53.0644 27.3976 52.6291 27.5715 52.6852 27.9717C52.1651 31.9233 50.3974 35.3793 48.0856 37.3785C47.027 38.2769 45.8446 38.8561 44.6417 39.1187C44.3181 39.225 43.9682 39.1626 43.6588 39.3281C42.9094 40.1901 42.4557 41.6325 41.5068 42.0842C41.0815 42.4012 40.5269 42.4655 40.2228 43.0582C40.1965 43.134 40.1909 43.2218 40.1919 43.3058" fill="#FEC50C"/>
<path d="M43.0319 39.2972C42.8919 39.6784 42.8095 40.1166 42.6295 40.458C42.0879 39.7187 41.3027 39.7431 40.6156 39.6939C40.0485 39.6485 39.4319 39.5701 38.9931 38.9634C38.5315 38.3963 38.1548 37.6599 37.639 37.1998C37.1683 37.0078 36.6937 36.7675 36.3152 36.2835C35.5064 35.2946 35.0432 33.8273 34.2529 32.8075C34.1022 32.5851 33.9245 32.4127 33.7557 32.2239C33.5954 32.2825 33.6679 32.8018 33.4717 32.5371C33.3649 32.4231 33.0977 32.412 33.0737 32.5713C33.3153 33.0489 33.5572 33.5942 33.5906 34.2051C33.4259 34.2304 33.1328 34.1528 33.0512 34.2449C33.27 34.7369 33.5505 35.1733 33.8692 35.5207C33.7164 35.5575 33.4151 35.5375 33.3565 35.6299C33.6729 36.0166 34.0122 36.4119 34.4264 36.5113C34.5112 36.679 34.3024 37.0027 34.478 37.1458C34.5798 37.2082 34.9158 37.3126 34.6844 37.4863C34.5255 37.6469 34.5845 38.021 34.7876 38.0126C34.916 38.1109 35.2043 38.135 35.2268 38.3053C35.113 38.479 34.7589 38.685 35.0603 38.8478C35.3418 39.082 35.663 39.2341 35.9845 39.2508C35.8231 39.4544 35.6243 39.57 35.4582 39.7615C36.2002 40.4142 37.0228 40.8433 37.8356 41.2567C38.1592 41.4189 38.4865 41.5701 38.822 41.6653C37.8472 41.5809 36.9051 41.148 36.0174 40.5556C35.5572 40.2529 35.094 39.9604 34.6224 39.6997C34.8292 39.5383 35.0684 39.4989 35.2828 39.3592C34.8377 39.2254 34.3514 39.1815 33.9601 38.8146C34.0201 38.654 34.2474 38.6464 34.3732 38.5647C34.6096 38.4798 34.7563 38.3767 34.4229 38.3459C34.0867 38.209 33.7011 38.2704 33.4048 37.9662C33.4239 37.7838 33.734 37.8473 33.8603 37.7686C34.0193 37.7276 34.1961 37.6933 34.3232 37.5328C33.8034 37.2095 33.1236 37.4386 32.7165 36.7501C32.6226 36.4878 33.008 36.6991 33.1178 36.6554C33.3967 36.6554 33.6965 36.7883 33.9621 36.6196C33.2047 36.1209 32.3935 35.6539 31.8159 34.7314C31.7517 34.5831 31.5596 34.1779 31.7146 34.1278C32.1642 34.217 32.4896 34.953 32.9704 34.8384C33.0343 34.7093 32.6911 34.4976 32.6054 34.3129C31.9043 33.4105 31.2238 32.4311 30.7324 31.249C30.6986 30.8542 31.1123 30.7951 31.2212 31.1C31.7574 31.8746 32.2418 32.7786 32.9096 33.3074C33.1466 33.4798 32.7735 33.1034 32.7239 32.9669C32.1068 31.8921 31.5193 30.7569 31.0881 29.491C31.0109 29.2628 30.8829 28.8498 31.1139 28.7284C31.3448 28.5549 31.574 28.7913 31.691 29.0888C32.1447 29.9471 32.4786 30.9672 33.0437 31.6823C32.5622 30.2808 32.0482 28.8054 32.0357 27.1926C32.047 26.88 32.0604 26.4071 32.343 26.4199C32.5804 26.366 32.5429 26.8217 32.6207 27.039C32.8545 28.2238 32.9565 29.5063 33.4255 30.5524C33.3219 29.6734 33.1694 28.7683 33.2707 27.8748C33.2941 27.5814 33.5143 27.4926 33.658 27.6699C33.7742 28.0965 33.7984 28.6233 33.9043 29.0794C34.5067 32.1705 35.8593 34.8893 37.622 36.7138C39.0736 38.2073 40.7964 39.0987 42.5548 39.2543C42.7136 39.275 42.873 39.2822 43.0321 39.2968" fill="#FEC50C"/>
<path d="M40.7999 43.3954C40.8521 43.3954 40.8945 43.3318 40.8945 43.2533C40.8945 43.1749 40.8521 43.1113 40.7999 43.1113C40.7476 43.1113 40.7052 43.1749 40.7052 43.2533C40.7052 43.3318 40.7476 43.3954 40.7999 43.3954Z" fill="#FEC50C"/>
<path d="M40.7919 43.2887C40.8132 43.2887 40.8305 43.2627 40.8305 43.2308C40.8305 43.1988 40.8132 43.1729 40.7919 43.1729C40.7706 43.1729 40.7533 43.1988 40.7533 43.2308C40.7533 43.2627 40.7706 43.2887 40.7919 43.2887Z" fill="#FEC50C"/>
<path d="M4.80002 4.37521C4.80002 4.37521 4.41558 3.89064 4.28506 4.13369C4.07508 4.52461 4.93066 6.47177 4.93066 7.15745C4.93066 8.28299 4.42998 8.58911 3.81174 8.74979C3.3969 8.85768 2.72138 8.70467 2.72138 8.70467C2.84856 8.44832 2.93129 8.37278 3.14562 8.35229C2.90702 8.16648 2.66405 7.76316 2.66405 7.13525C2.66405 6.16697 2.92979 5.7679 2.92979 4.67626C2.92979 4.07068 2.59875 3.2998 2.59875 3.2998C3.18388 3.38764 3.47388 4.20035 3.30888 4.84985C3.40202 4.86997 3.48659 4.83852 3.55922 4.73528C3.60204 4.91531 3.53444 5.12427 3.44388 5.3043C3.51682 5.36276 3.57038 5.3277 3.68653 5.29174C3.67551 5.47723 3.60142 5.67429 3.42014 5.85976C3.94618 5.6549 4.26986 6.20487 4.26986 6.78058C4.26986 7.21546 4.0667 7.52716 3.8681 7.52716C3.80393 7.52716 3.70966 7.48752 3.65647 7.42797C3.61898 7.54766 3.6383 7.70785 3.67692 7.82755C3.53137 7.76984 3.43898 7.64017 3.50475 7.37028C3.39295 7.35487 3.30402 7.29821 3.24352 7.19025C3.30482 7.0725 3.3978 7.00468 3.50475 7.01022C3.42334 6.75825 3.51406 6.61719 3.64624 6.50286C3.64624 6.50286 3.56218 7.0102 3.77685 7.0102C3.87339 7.0102 3.96134 6.96307 3.96134 6.74968C3.96134 6.56386 3.85304 6.30646 3.60271 6.32283C3.35236 6.33919 3.14942 6.58174 3.14942 7.18119C3.14942 7.73416 3.44676 8.00919 3.83859 8.02695C4.19194 8.04331 4.45863 7.75619 4.45863 7.20945C4.45863 6.48177 3.75831 4.82307 3.75831 4.17459C3.75831 3.68805 4.04999 3.41649 4.33539 3.41649C4.70546 3.41649 5.01771 3.96616 5.01771 3.96616L4.8003 4.37503L4.80002 4.37521Z" fill="#FEC50C"/>
<path d="M4.88078 17.5279C4.88078 18.7441 4.15286 19.3692 3.58086 19.3692C2.81022 19.3692 2.3999 18.6781 2.3999 17.7733C2.3999 17.2605 2.46255 16.9387 2.6202 16.4478C2.6202 16.4478 3.8914 12.4824 4.38632 10.9486C4.44804 10.7573 4.46795 10.5396 4.46795 10.2204C4.46795 9.72733 4.14915 9.32438 3.81487 9.31202C3.51015 9.30059 3.17815 9.73815 3.17815 10.2367C3.17815 10.8423 3.38758 11.1123 3.60263 11.1123C3.86726 11.1123 3.9727 10.9491 3.9727 10.6704C3.9727 10.4762 3.91017 10.3922 3.82032 10.3922C3.59335 10.3922 3.65705 10.8505 3.65705 10.8505C3.54432 10.8134 3.45171 10.6407 3.50467 10.4249C3.42221 10.3974 3.34496 10.3325 3.28427 10.2285C3.34511 10.14 3.41491 10.0717 3.50467 10.0485C3.45152 9.78527 3.52255 9.65665 3.6761 9.60252C3.64511 9.70378 3.64405 9.79693 3.65433 9.88484C3.89608 9.78173 4.26657 9.94582 4.26657 10.5722C4.26657 11.1941 3.97883 11.7178 3.43933 11.5869C3.56768 11.679 3.63296 11.8673 3.64614 12.0779C3.54817 12.0206 3.43933 12.0124 3.43933 12.0124C3.50241 12.1793 3.59002 12.3231 3.58627 12.6507C3.48624 12.5825 3.39336 12.4562 3.26518 12.5362C3.46636 13.13 3.21919 13.9468 2.59034 14.1401C2.82049 13.7354 2.9332 13.2985 2.9332 12.8635C2.9332 11.4537 2.67198 11.2168 2.67198 10.2367C2.67198 9.82661 2.81251 9.38377 3.09102 9.08281V9.09917C2.90693 9.02523 2.78901 8.88926 2.72123 8.70452C3.14183 8.52563 3.75319 8.52891 4.08147 8.72264C4.45883 8.78819 4.72223 9.22249 4.79983 9.44288C4.87745 9.66313 5.02821 10.4601 4.79983 11.1776C4.54988 11.9629 3.37139 15.7111 3.00395 16.8895C2.92601 17.1394 2.87878 17.4044 2.87878 17.6914C2.87878 18.4132 3.31958 18.6652 3.56994 18.6652C3.86925 18.6652 4.17402 18.3232 4.17402 17.896C4.17402 17.6254 4.07605 17.4623 3.93456 17.4623C3.59621 17.4623 3.61676 17.8941 3.68422 18.1661C3.47364 18.0241 3.35125 17.7706 3.3849 17.5033C3.26568 17.4788 3.15221 17.3939 3.04749 17.2168C3.12988 17.0608 3.23038 16.9428 3.3849 16.9386C3.31741 16.5239 3.50252 16.3485 3.68422 16.2513C3.62674 16.5556 3.589 16.9059 3.93456 16.9059C4.1865 16.9059 4.38488 16.9714 4.50056 17.2169C4.50736 16.8896 4.52777 15.5966 4.52777 15.5966C4.54228 15.1107 4.09421 15.1246 3.80941 15.2693C3.9169 14.7096 4.13733 14.407 4.64749 14.4837C4.52368 14.4059 4.39171 14.2312 4.39171 13.8945C4.39179 13.4389 4.63819 12.9342 4.79995 12.785L4.88083 17.528L4.88078 17.5279Z" fill="#FEC50C"/>
</svg>
