<svg width="48" height="48" viewBox="0 0 48 48" fill="none" xmlns="http://www.w3.org/2000/svg">
<path d="M7.03125 48H22.6875V30.9375H17.0625V25.3125H22.6875V18.2812C22.6875 14.4042 25.8417 11.25 29.7188 11.25H36.75V16.875H31.125C29.5741 16.875 28.3125 18.1366 28.3125 19.6875V25.3125H36.4962L35.5587 30.9375H28.3125V48H40.9688C44.8458 48 48 44.8458 48 40.9688V7.03125C48 3.15417 44.8458 0 40.9688 0H7.03125C3.15417 0 0 3.15417 0 7.03125V40.9688C0 44.8458 3.15417 48 7.03125 48ZM2.8125 7.03125C2.8125 4.70508 4.70508 2.8125 7.03125 2.8125H40.9688C43.2949 2.8125 45.1875 4.70508 45.1875 7.03125V40.9688C45.1875 43.2949 43.2949 45.1875 40.9688 45.1875H31.125V33.75H37.9413L39.8163 22.5H31.125V19.6875H39.5625V8.4375H29.7188C24.2908 8.4375 19.875 12.8533 19.875 18.2812V22.5H14.25V33.75H19.875V45.1875H7.03125C4.70508 45.1875 2.8125 43.2949 2.8125 40.9688V7.03125Z" fill="black"/>
</svg>
