<svg width="48" height="48" viewBox="0 0 48 48" fill="none" xmlns="http://www.w3.org/2000/svg">
<path d="M7.03125 48H40.9688C44.8458 48 48 44.8458 48 40.9688V7.03125C48 3.15417 44.8458 0 40.9688 0H7.03125C3.15417 0 0 3.15417 0 7.03125V40.9688C0 44.8458 3.15417 48 7.03125 48ZM2.8125 7.03125C2.8125 4.70508 4.70508 2.8125 7.03125 2.8125H40.9688C43.2949 2.8125 45.1875 4.70508 45.1875 7.03125V40.9688C45.1875 43.2949 43.2949 45.1875 40.9688 45.1875H7.03125C4.70508 45.1875 2.8125 43.2949 2.8125 40.9688V7.03125Z" fill="black"/>
<path d="M24 36.6562C30.9785 36.6562 36.6562 30.9785 36.6562 24C36.6562 17.0215 30.9785 11.3438 24 11.3438C17.0215 11.3438 11.3438 17.0215 11.3438 24C11.3438 30.9785 17.0215 36.6562 24 36.6562ZM24 14.1562C29.428 14.1562 33.8438 18.572 33.8438 24C33.8438 29.428 29.428 33.8438 24 33.8438C18.572 33.8438 14.1562 29.428 14.1562 24C14.1562 18.572 18.572 14.1562 24 14.1562Z" fill="black"/>
<path d="M38.0625 14.1562C40.3887 14.1562 42.2812 12.2637 42.2812 9.9375C42.2812 7.61133 40.3887 5.71875 38.0625 5.71875C35.7363 5.71875 33.8438 7.61133 33.8438 9.9375C33.8438 12.2637 35.7363 14.1562 38.0625 14.1562ZM38.0625 8.53125C38.8378 8.53125 39.4688 9.16223 39.4688 9.9375C39.4688 10.7128 38.8378 11.3438 38.0625 11.3438C37.2872 11.3438 36.6562 10.7128 36.6562 9.9375C36.6562 9.16223 37.2872 8.53125 38.0625 8.53125Z" fill="black"/>
</svg>
