<svg width="48" height="48" viewBox="0 0 48 48" fill="none" xmlns="http://www.w3.org/2000/svg">
<rect x="1.5" y="1.5" width="45" height="45" rx="4.5" stroke="black" stroke-width="3"/>
<path d="M37.2223 27.9265L37.2034 27.9086C36.9046 27.6299 35.9892 26.7297 35.6805 26.3363C35.3182 25.8455 35.4017 25.5238 35.6733 25.0419C36.0164 24.4329 36.704 23.4987 37.4317 22.5095C39.7623 19.3421 41.267 17.1494 40.9573 15.5919L40.7904 14.76L32.1832 14.7637C32.1531 14.8458 31.7039 16.8396 29.8086 20.2347C28.4342 22.6965 27.5327 23.4698 27.2152 23.6063L27.166 23.5912C27.0627 23.4623 26.8822 23.1142 26.808 22.2169C26.7305 21.2771 26.7991 20.1392 26.8656 19.0388C26.9433 17.7484 27.0104 16.634 26.8499 15.8366L26.5885 14.5376C26.2726 14.4866 25.1161 14.0357 21.8938 14.0015C19.1042 13.9726 18.2847 14.3798 17.8822 14.7387L16.5511 15.9257L18.2337 16.4977C18.874 16.7155 19.0865 16.9667 19.2609 18.212C19.3747 19.0237 19.4342 20.3877 19.3114 21.6055C19.1349 23.3516 18.7116 23.6765 18.6897 23.6938C18.6168 23.6687 17.9987 23.3953 16.9255 21.1025C16.181 19.5124 15.5284 17.6313 15.0515 16.2578C14.5057 14.685 14.6039 15.0198 14.327 14.2767L6 14.2764L6.53886 15.685C8.78538 21.5629 10.8466 26.1531 13.605 29.45C16.6526 33.0925 20.4401 34.9997 25.542 34.9997H26.5674V33.9636C26.5674 32.9948 26.6467 32.2973 26.8168 31.7684C26.9206 31.4462 27.0587 31.1799 27.2037 30.9006C27.4189 30.4894 27.6293 30.3132 27.7442 30.287C27.8483 30.263 28.0315 30.3402 28.2344 30.4932C28.8171 30.9322 29.2796 31.5091 29.7693 32.12C30.4759 33.0016 31.2065 33.9128 32.3656 34.5094C32.999 34.8354 34.1601 35 34.7991 35C34.9681 35 40.9925 34.9997 41 34.9997L40.9559 33.9209C40.8903 32.3078 39.6339 30.2908 37.2223 27.9265ZM34.8388 32.9274H34.8223C34.3817 32.9347 33.5408 32.7887 33.2962 32.6629C32.5256 32.2663 31.987 31.5941 31.3629 30.8159C30.8153 30.1324 30.2489 29.4257 29.4604 28.8318C28.8227 28.3512 28.2435 28.2106 27.7837 28.2106C27.6 28.2106 27.4349 28.233 27.2934 28.2654C26.7596 28.3868 25.9962 28.7748 25.3892 29.9349C25.2181 30.2649 25.0239 30.6386 24.8667 31.1276C24.7019 31.6392 24.5994 32.2077 24.5505 32.8993C20.7058 32.6786 17.7057 31.1416 15.1711 28.1121C12.8146 25.2953 10.9606 21.3554 8.99713 16.348C9.13919 16.348 12.699 16.3485 12.9091 16.3485C12.9735 16.5312 13.0429 16.7314 13.1166 16.9435C13.6306 18.4252 14.3348 20.4541 15.1644 22.1843C16.3524 24.662 17.4374 25.7669 18.682 25.7669C19.3034 25.7669 19.8607 25.5009 20.2935 24.9971C20.9106 24.2791 21.269 23.0939 21.3891 21.3737C21.4839 20.0172 21.3958 18.6661 21.2917 17.9217C21.2057 17.3091 21.0831 16.6661 20.784 16.09C22.0586 16.032 23.7652 16.1237 24.8464 16.2805C24.9446 16.8213 24.8805 17.8842 24.8186 18.9125C24.6688 21.3966 24.5142 23.9601 25.8154 25.1595C26.0443 25.3705 26.287 25.4836 26.2939 25.4882L26.9562 25.6935C27.2117 25.6139 28.6918 26.3727 31.4946 21.4301C32.3926 19.8464 33.2287 18.0215 33.6789 16.8296C34.723 16.8275 38.28 16.8315 38.6979 16.8321C38.1059 18.1486 36.703 20.0264 35.786 21.2728C34.9865 22.3592 34.2962 23.2974 33.8912 24.0162C33.1387 25.3517 33.2652 26.5419 34.049 27.5919L34.0613 27.608C34.4986 28.1707 35.5788 29.2122 35.8028 29.4222C37.4258 31.0145 38.2079 32.1583 38.5802 32.9271H34.8388V32.9274Z" fill="black"/>
</svg>
