<svg width="80" height="60" viewBox="0 0 80 60" fill="none" xmlns="http://www.w3.org/2000/svg">
<g clip-path="url(#clip0)">
<path d="M0.5 59.5V0.5H79.5V59.5H0.5Z" fill="#C8313E" stroke="black"/>
<path d="M0.5 59.5V40.5H79.5V59.5H0.5Z" fill="#4AA657" stroke="black"/>
<path d="M0.5 59.5V0.5H8.38889V59.5H0.5Z" fill="white" stroke="black"/>
<path fill-rule="evenodd" clip-rule="evenodd" d="M1.54589 0H2.70531V0.983607H3.09179V1.96721H3.47826V2.95082H3.86473V3.93443H4.25121V4.91804H3.86473V5.90164H3.47826V6.88525H3.09179V7.86886H2.70531V8.85246H2.31884V9.83607H1.93237V8.85246H1.54589V7.86886H1.15942V6.88525H0.772947V5.90164H0.386473V4.91804H0V3.93443H0.386473V2.95082H0.772947V1.96721H1.15942V0.983607H1.54589V0ZM1.93237 1.96721H2.31884V2.95082H2.70531V3.93443H3.09179V4.91804H2.70531V5.90164H2.31884V6.88525H1.93237V5.90164H1.54589V4.91804H1.15942V3.93443H1.54589V2.95082H1.93237V1.96721ZM1.93237 3.93443H2.31884V4.91804H1.93237V3.93443ZM0 0.983607H0.386473V1.96721H0V0.983607ZM0 6.88525H0.386473V7.86886H0V6.88525ZM4.25121 0H4.48309V1.96721H4.25121V0ZM4.25121 6.88525H4.48309V8.85246H4.25121V6.88525ZM0.772947 8.85246H1.15942V9.83607H1.54589V10.8197H1.93237V11.8033H1.54589V12.7869H1.15942V13.7705H0.772947V12.7869H0.386473V11.8033H0V10.8197H0.386473V9.83607H0.772947V8.85246ZM0.772947 10.8197H1.15942V11.8033H0.772947V10.8197ZM3.09179 8.85246H3.47826V9.83607H3.86473V10.8197H4.25121V11.8033H3.86473V12.7869H3.47826V13.7705H3.09179V12.7869H2.70531V11.8033H2.31884V10.8197H2.70531V9.83607H3.09179V8.85246ZM3.09179 10.8197H3.47826V11.8033H3.09179V10.8197ZM0 14.7541H0.386473V15.7377H0V14.7541ZM4.25121 13.7705H4.48309V15.7377H4.25121V13.7705Z" fill="#C8313E"/>
<path fill-rule="evenodd" clip-rule="evenodd" d="M0 17.7051H0.386473V16.7215H0.772947V15.7379H1.15942V14.7543H1.54589V13.7707H1.93237V12.7871H2.31884V13.7707H2.70531V14.7543H3.09179V15.7379H3.47826V16.7215H3.86473V17.7051H4.25121V18.6887H4.48309V22.6232H4.25121V23.6068H3.86473V24.5904H3.47826V25.574H3.09179V26.5576H2.70531V27.5412H2.31884V30.0986H1.54589V29.5084H1.15942V28.5248H0.772947V27.5412H0.386473V26.5576H0V23.6068H0.386473V24.5904H0.772947V25.574H1.15942V26.5576H1.54589V25.574H1.93237V24.5904H2.31884V23.6068H2.70531V22.6232H3.09179V21.6396H3.47826V20.656H3.09179V19.6724H2.70531V18.6887H1.54589V19.6724H2.31884V20.656H1.93237V21.6396H1.54589V22.6232H1.15942V21.6396H0.772947V20.656H0.386473V19.6724H0V17.7051ZM0 21.6396H0.386473V22.6232H0V21.6396ZM4.25121 24.5904H4.48309V25.574H4.25121V24.5904ZM3.47826 26.5576H3.86473V27.5412H4.25121V28.5248H4.48309V30.0986H4.25121V29.5084H3.86473V28.5248H3.47826V26.5576ZM2.70531 29.5084H3.09179V30.0986H2.70531V29.5084Z" fill="#C8313E"/>
</g>
<defs>
<clipPath id="clip0">
<rect width="80" height="60" fill="white"/>
</clipPath>
</defs>
</svg>
