<svg width="37" height="45" viewBox="0 0 37 45" fill="none" xmlns="http://www.w3.org/2000/svg">
<path d="M19.7169 3.86005V4.36005H20.2169H28.1871V9.45485H0.744629V4.36005H8.71479H9.21479V3.86005V0.5H19.7169V3.86005ZM11.7622 2.5474H11.2622V3.0474V3.86005V4.36005H11.7622H17.1695H17.6695V3.86005V3.0474V2.5474H17.1695H11.7622Z" fill="black" stroke="black"/>
<path d="M14.9803 41.9605H4.77591L2.90984 13.5023H26.0215L25.5102 21.3001C18.5182 21.8837 13.0077 27.7597 13.0077 34.8999C13.0077 37.482 13.7292 39.8994 14.9803 41.9605Z" fill="black" stroke="black"/>
<path d="M32.5121 38.6018L32.8656 38.2482L32.5121 37.8946L29.5172 34.8998L32.5121 31.905L32.8656 31.5514L32.5121 31.1979L30.3572 29.0431L30.0037 28.6895L29.6501 29.0431L26.6553 32.0379L23.6605 29.0431L23.3069 28.6895L22.9534 29.0431L20.7985 31.1979L20.445 31.5514L20.7985 31.905L23.7934 34.8998L20.7985 37.8946L20.445 38.2482L20.7985 38.6018L22.9534 40.7566L23.3069 41.1101L23.6605 40.7566L26.6553 37.7617L29.6501 40.7566L30.0037 41.1101L30.3572 40.7566L32.5121 38.6018ZM17.0552 34.8998C17.0552 29.6068 21.3622 25.2998 26.6553 25.2998C31.9484 25.2998 36.2554 29.6067 36.2554 34.8998C36.2554 40.1929 31.9484 44.4999 26.6553 44.4999C21.3622 44.4999 17.0552 40.1928 17.0552 34.8998Z" fill="black" stroke="black"/>
</svg>
