<svg width="378" height="109" viewBox="0 0 378 109" fill="none" xmlns="http://www.w3.org/2000/svg">
<path d="M111.938 66.8579C110.25 68.8423 107.773 69.8345 104.508 69.8345C101.805 69.8345 99.7422 69.0532 98.3203 67.4907C96.9141 65.9126 96.2031 63.5845 96.1875 60.5063V44.0063H100.523V60.3892C100.523 64.2329 102.086 66.1548 105.211 66.1548C108.523 66.1548 110.727 64.9204 111.82 62.4517V44.0063H116.156V69.3657H112.031L111.938 66.8579ZM127.477 69.3657H123.141V44.0063H127.477V69.3657ZM122.789 37.2798C122.789 36.5767 123 35.9829 123.422 35.4985C123.859 35.0142 124.5 34.772 125.344 34.772C126.188 34.772 126.828 35.0142 127.266 35.4985C127.703 35.9829 127.922 36.5767 127.922 37.2798C127.922 37.9829 127.703 38.5688 127.266 39.0376C126.828 39.5063 126.188 39.7407 125.344 39.7407C124.5 39.7407 123.859 39.5063 123.422 39.0376C123 38.5688 122.789 37.9829 122.789 37.2798ZM144.609 66.2954C146.156 66.2954 147.508 65.8267 148.664 64.8892C149.82 63.9517 150.461 62.7798 150.586 61.3735H154.688C154.609 62.8267 154.109 64.2095 153.188 65.522C152.266 66.8345 151.031 67.8813 149.484 68.6626C147.953 69.4438 146.328 69.8345 144.609 69.8345C141.156 69.8345 138.406 68.686 136.359 66.3892C134.328 64.0767 133.312 60.9204 133.312 56.9204V56.1938C133.312 53.7251 133.766 51.5298 134.672 49.6079C135.578 47.686 136.875 46.1938 138.562 45.1313C140.266 44.0688 142.273 43.5376 144.586 43.5376C147.43 43.5376 149.789 44.3892 151.664 46.0923C153.555 47.7954 154.562 50.0063 154.688 52.7251H150.586C150.461 51.0845 149.836 49.7407 148.711 48.6938C147.602 47.6313 146.227 47.1001 144.586 47.1001C142.383 47.1001 140.672 47.897 139.453 49.4907C138.25 51.0688 137.648 53.3579 137.648 56.3579V57.1782C137.648 60.1001 138.25 62.3501 139.453 63.9282C140.656 65.5063 142.375 66.2954 144.609 66.2954ZM166.641 57.6235L163.922 60.4595V69.3657H159.586V33.3657H163.922V55.1392L166.242 52.3501L174.141 44.0063H179.414L169.547 54.6001L180.562 69.3657H175.477L166.641 57.6235ZM205.359 56.9673C205.359 60.8423 204.469 63.9595 202.688 66.3188C200.906 68.6626 198.516 69.8345 195.516 69.8345C192.312 69.8345 189.836 68.7017 188.086 66.436L187.875 69.3657H183.891V33.3657H188.227V46.7954C189.977 44.6235 192.391 43.5376 195.469 43.5376C198.547 43.5376 200.961 44.7017 202.711 47.0298C204.477 49.3579 205.359 52.5454 205.359 56.5923V56.9673ZM201.023 56.4751C201.023 53.522 200.453 51.2407 199.312 49.6313C198.172 48.022 196.531 47.2173 194.391 47.2173C191.531 47.2173 189.477 48.5454 188.227 51.2017V62.1704C189.555 64.8267 191.625 66.1548 194.438 66.1548C196.516 66.1548 198.133 65.3501 199.289 63.7407C200.445 62.1313 201.023 59.7095 201.023 56.4751ZM226.5 66.8579C224.812 68.8423 222.336 69.8345 219.07 69.8345C216.367 69.8345 214.305 69.0532 212.883 67.4907C211.477 65.9126 210.766 63.5845 210.75 60.5063V44.0063H215.086V60.3892C215.086 64.2329 216.648 66.1548 219.773 66.1548C223.086 66.1548 225.289 64.9204 226.383 62.4517V44.0063H230.719V69.3657H226.594L226.5 66.8579ZM245.625 63.0142L251.531 44.0063H256.172L245.977 73.2798C244.398 77.4985 241.891 79.6079 238.453 79.6079L237.633 79.5376L236.016 79.2329V75.7173L237.188 75.811C238.656 75.811 239.797 75.5142 240.609 74.9204C241.438 74.3267 242.117 73.2407 242.648 71.6626L243.609 69.0845L234.562 44.0063H239.297L245.625 63.0142ZM257.625 67.0923C257.625 66.3423 257.844 65.7173 258.281 65.2173C258.734 64.7173 259.406 64.4673 260.297 64.4673C261.188 64.4673 261.859 64.7173 262.312 65.2173C262.781 65.7173 263.016 66.3423 263.016 67.0923C263.016 67.811 262.781 68.4126 262.312 68.897C261.859 69.3813 261.188 69.6235 260.297 69.6235C259.406 69.6235 258.734 69.3813 258.281 68.897C257.844 68.4126 257.625 67.811 257.625 67.0923ZM284.953 62.6392C284.953 61.4673 284.508 60.561 283.617 59.9204C282.742 59.2642 281.203 58.7017 279 58.2329C276.812 57.7642 275.07 57.2017 273.773 56.5454C272.492 55.8892 271.539 55.1079 270.914 54.2017C270.305 53.2954 270 52.2173 270 50.9673C270 48.8892 270.875 47.1313 272.625 45.6938C274.391 44.2563 276.641 43.5376 279.375 43.5376C282.25 43.5376 284.578 44.2798 286.359 45.7642C288.156 47.2485 289.055 49.147 289.055 51.4595H284.695C284.695 50.272 284.188 49.2485 283.172 48.3892C282.172 47.5298 280.906 47.1001 279.375 47.1001C277.797 47.1001 276.562 47.4438 275.672 48.1313C274.781 48.8188 274.336 49.7173 274.336 50.8267C274.336 51.8735 274.75 52.6626 275.578 53.1938C276.406 53.7251 277.898 54.2329 280.055 54.7173C282.227 55.2017 283.984 55.7798 285.328 56.4517C286.672 57.1235 287.664 57.936 288.305 58.8892C288.961 59.8267 289.289 60.9751 289.289 62.3345C289.289 64.6001 288.383 66.4204 286.57 67.7954C284.758 69.1548 282.406 69.8345 279.516 69.8345C277.484 69.8345 275.688 69.4751 274.125 68.7563C272.562 68.0376 271.336 67.0376 270.445 65.7563C269.57 64.4595 269.133 63.061 269.133 61.561H273.469C273.547 63.0142 274.125 64.1704 275.203 65.0298C276.297 65.8735 277.734 66.2954 279.516 66.2954C281.156 66.2954 282.469 65.9673 283.453 65.311C284.453 64.6392 284.953 63.7485 284.953 62.6392ZM300.82 37.8657V44.0063H305.555V47.3579H300.82V63.0845C300.82 64.1001 301.031 64.8657 301.453 65.3813C301.875 65.8813 302.594 66.1313 303.609 66.1313C304.109 66.1313 304.797 66.0376 305.672 65.8501V69.3657C304.531 69.6782 303.422 69.8345 302.344 69.8345C300.406 69.8345 298.945 69.2485 297.961 68.0767C296.977 66.9048 296.484 65.2407 296.484 63.0845V47.3579H291.867V44.0063H296.484V37.8657H300.82ZM309.023 56.4517C309.023 53.9673 309.508 51.7329 310.477 49.7485C311.461 47.7642 312.82 46.2329 314.555 45.1548C316.305 44.0767 318.297 43.5376 320.531 43.5376C323.984 43.5376 326.773 44.7329 328.898 47.1235C331.039 49.5142 332.109 52.6938 332.109 56.6626V56.9673C332.109 59.436 331.633 61.6548 330.68 63.6235C329.742 65.5767 328.391 67.1001 326.625 68.1938C324.875 69.2876 322.859 69.8345 320.578 69.8345C317.141 69.8345 314.352 68.6392 312.211 66.2485C310.086 63.8579 309.023 60.6938 309.023 56.7563V56.4517ZM313.383 56.9673C313.383 59.7798 314.031 62.0376 315.328 63.7407C316.641 65.4438 318.391 66.2954 320.578 66.2954C322.781 66.2954 324.531 65.436 325.828 63.7173C327.125 61.9829 327.773 59.561 327.773 56.4517C327.773 53.6704 327.109 51.4204 325.781 49.7017C324.469 47.9673 322.719 47.1001 320.531 47.1001C318.391 47.1001 316.664 47.9517 315.352 49.6548C314.039 51.3579 313.383 53.7954 313.383 56.9673ZM349.805 47.897C349.148 47.7876 348.438 47.7329 347.672 47.7329C344.828 47.7329 342.898 48.9438 341.883 51.3657V69.3657H337.547V44.0063H341.766L341.836 46.936C343.258 44.6704 345.273 43.5376 347.883 43.5376C348.727 43.5376 349.367 43.647 349.805 43.8657V47.897ZM363.867 69.8345C360.43 69.8345 357.633 68.7095 355.477 66.4595C353.32 64.1938 352.242 61.1704 352.242 57.3892V56.5923C352.242 54.0767 352.719 51.8345 353.672 49.8657C354.641 47.8813 355.984 46.3345 357.703 45.2251C359.438 44.1001 361.312 43.5376 363.328 43.5376C366.625 43.5376 369.188 44.6235 371.016 46.7954C372.844 48.9673 373.758 52.0767 373.758 56.1235V57.9282H356.578C356.641 60.4282 357.367 62.4517 358.758 63.9985C360.164 65.5298 361.945 66.2954 364.102 66.2954C365.633 66.2954 366.93 65.9829 367.992 65.3579C369.055 64.7329 369.984 63.9048 370.781 62.8735L373.43 64.936C371.305 68.2017 368.117 69.8345 363.867 69.8345ZM363.328 47.1001C361.578 47.1001 360.109 47.7407 358.922 49.022C357.734 50.2876 357 52.0688 356.719 54.3657H369.422V54.0376C369.297 51.8345 368.703 50.1313 367.641 48.9282C366.578 47.7095 365.141 47.1001 363.328 47.1001Z" fill="black"/>
<path d="M16.2485 16.7329C28.6219 5.05915 45.8592 7.23789 57.9386 19.2075C70.0181 31.1771 69.8043 50.3284 57.4309 62.0021C54.2239 65.0416 54.0636 64.3423 50.1084 65.7678C57.1903 64.8533 60.9318 63.4008 66.437 58.2095C79.9863 45.433 79.7725 25.8244 66.5172 12.7251C53.2619 -0.374231 30.5728 -1.90741 18.9477 12.5906" fill="url(#paint0_linear)"/>
<path d="M59.5153 73.2454C60.3972 72.6805 61.092 72.0888 62.0541 71.6046C63.4972 70.8784 64.8869 70.2328 66.4636 69.937C74.4275 68.5383 81.9905 73.891 83.3801 81.9065C83.6474 83.4666 83.6741 84.9998 83.4603 86.4792C85.3845 83.4935 86.2129 79.7816 85.5716 75.989C84.2353 68.35 77.287 63.1049 69.724 63.858C71.4611 61.5986 72.9042 59.2047 74.0801 56.7032C73.2249 57.806 72.2895 58.855 71.274 59.8771C57.404 73.8372 34.9021 73.8372 21.0321 59.8771C7.16214 45.9171 7.16214 23.269 21.0321 9.30898C24.6399 5.67776 28.8356 2.98796 33.2986 1.23959C25.2813 2.39621 17.5579 6.08122 11.3846 12.2947C-3.79487 27.5727 -3.79487 52.3726 11.3846 67.6506C23.7313 80.0775 42.3315 82.4176 57.0299 74.6172" fill="url(#paint1_linear)"/>
<path d="M17.6381 16.0066C29.5572 4.27913 48.6384 4.52121 60.2903 16.5177C71.9421 28.5142 71.7016 47.7193 59.7825 59.4468C56.6825 62.4863 53.1014 64.7188 49.2798 66.1713C56.0945 65.2568 62.6955 62.2173 67.9869 56.9991C81.0284 44.1688 81.2689 23.1346 68.5481 10.0084C55.8006 -3.11781 34.9021 -3.35989 21.8606 9.44354C19.0545 12.1871 16.8631 15.3342 15.2329 18.6695C15.9812 17.755 16.7829 16.8674 17.6381 16.0066Z" fill="black"/>
<defs>
<linearGradient id="paint0_linear" x1="46.4056" y1="-68.4104" x2="46.4056" y2="-131.871" gradientUnits="userSpaceOnUse">
<stop offset="0.2455" stop-color="#696969"/>
<stop offset="1" stop-color="#9DE0F4"/>
</linearGradient>
<linearGradient id="paint1_linear" x1="86" y1="81.4514" x2="3.65755" y2="20.068" gradientUnits="userSpaceOnUse">
<stop offset="0.00464642"/>
<stop offset="0.994475" stop-color="#4D4D4D"/>
</linearGradient>
</defs>
</svg>
