<svg width="25" height="25" viewBox="0 0 25 25" fill="none" xmlns="http://www.w3.org/2000/svg">
<g clip-path="url(#clip0)">
<path d="M20.0926 25C19.0525 25 17.7962 24.7393 16.4147 24.218C13.3858 23.076 10.0904 20.8191 7.13562 17.8643C4.17995 14.9086 1.92305 11.6124 0.7803 8.5836C-0.258179 5.82974 -0.260701 3.56947 0.774413 2.5352C0.923248 2.38636 1.07461 2.2266 1.23101 2.06179C2.17531 1.06872 3.24238 -0.0488046 4.65672 0.00164779C5.6313 0.0420097 6.5756 0.647438 7.5426 1.85073C10.3999 5.40426 9.11167 6.67061 7.6208 8.13878L7.35761 8.39945C7.11376 8.6433 6.65296 9.77259 10.9397 14.0594C12.3389 15.4586 13.5321 16.4828 14.4857 17.1025C15.0861 17.4927 16.1599 18.0829 16.6005 17.6423L16.8654 17.3749C18.3318 15.8874 19.5982 14.6034 23.1492 17.4582C24.3525 18.4252 24.9571 19.3686 24.9974 20.3449C25.0555 21.7584 23.9295 22.828 22.9356 23.7715C22.7717 23.9279 22.6119 24.0792 22.4631 24.2272C21.9493 24.7418 21.1277 25 20.0926 25ZM4.55582 0.840839C3.55098 0.840839 2.64367 1.79607 1.84064 2.64115C1.67919 2.81101 1.52279 2.97582 1.36891 3.1297C0.59783 3.89994 0.676031 5.92392 1.56736 8.28761C2.6689 11.2071 4.85769 14.3974 7.73096 17.2707C10.6034 20.1422 13.792 22.331 16.7123 23.4317C19.076 24.3247 21.1 24.4004 21.8694 23.631C22.0233 23.4771 22.1881 23.3207 22.3579 23.1601C23.2215 22.3394 24.2011 21.4094 24.1583 20.3777C24.1288 19.6688 23.6125 18.9062 22.6237 18.1115C19.6646 15.7319 18.8372 16.5719 17.4649 17.9635L17.1958 18.2351C16.5399 18.8919 15.4746 18.7464 14.0283 17.8063C13.0251 17.1538 11.7856 16.0926 10.3461 14.6522C6.78834 11.0953 5.65064 8.91827 6.76395 7.80243L7.03219 7.53755C8.4272 6.16525 9.26891 5.33699 6.8884 2.37627C6.0921 1.38825 5.33026 0.871952 4.62141 0.84168C4.59955 0.840839 4.57768 0.840839 4.55582 0.840839Z" fill="black"/>
</g>
<defs>
<clipPath id="clip0">
<rect width="25" height="25" fill="white"/>
</clipPath>
</defs>
</svg>
