<svg width="25" height="26" viewBox="0 0 25 26" fill="none" xmlns="http://www.w3.org/2000/svg">
<path d="M24.8634 25.1689L17.5795 17.5834C19.4374 15.7175 20.5884 13.1453 20.5884 10.3085C20.5884 4.6241 15.9707 0 10.2942 0C4.61768 0 0 4.6241 0 10.3085C0 15.9929 4.61768 20.617 10.2942 20.617C12.7859 20.617 15.0726 19.7251 16.855 18.2451L24.1565 25.8493C24.2526 25.9499 24.381 26 24.51 26C24.6325 26 24.7546 25.9543 24.8497 25.863C25.0448 25.675 25.0506 25.3643 24.8634 25.1689ZM10.2942 19.6352C5.15836 19.6352 0.980398 15.4515 0.980398 10.3085C0.980398 5.16554 5.15836 0.981762 10.2942 0.981762C15.43 0.981762 19.608 5.16554 19.608 10.3085C19.608 15.4515 15.4295 19.6352 10.2942 19.6352Z" fill="black"/>
</svg>
