<svg width="25" height="25" viewBox="0 0 25 25" fill="none" xmlns="http://www.w3.org/2000/svg">
<path d="M20.0059 17.8704L16.0254 15.8804C15.65 15.6925 15.4167 15.315 15.4167 14.895V13.4862C15.5121 13.3696 15.6125 13.2367 15.7163 13.09C16.2325 12.3608 16.6463 11.5492 16.9471 10.6737C17.535 10.4042 17.9167 9.82292 17.9167 9.16667V7.5C17.9167 7.09875 17.7667 6.71 17.5 6.40625V4.19C17.5234 3.96083 17.615 2.59667 16.6284 1.47125C15.7725 0.495 14.3838 0 12.5 0C10.6163 0 9.22752 0.495 8.37169 1.47083C7.38502 2.59625 7.47669 3.96083 7.50002 4.19V6.40625C7.23335 6.71 7.08335 7.09875 7.08335 7.5V9.16667C7.08335 9.67375 7.31377 10.1467 7.7071 10.4621C8.08877 11.9733 8.88752 13.1121 9.16669 13.4775V14.8562C9.16669 15.2596 8.94669 15.6296 8.59294 15.8229L4.87585 17.8504C3.6671 18.51 2.91669 19.7742 2.91669 21.1508V22.5C2.91669 24.4775 9.18544 25 12.5 25C15.8146 25 22.0834 24.4775 22.0834 22.5V21.2321C22.0834 19.7996 21.2871 18.5112 20.0059 17.8704ZM21.25 22.5C21.25 23.0654 18.1617 24.1667 12.5 24.1667C6.83835 24.1667 3.75002 23.0654 3.75002 22.5V21.1508C3.75002 20.0796 4.33419 19.095 5.2746 18.5825L8.99169 16.555C9.61377 16.2154 10 15.5642 10 14.8562V13.1817L9.90294 13.0658C9.89294 13.0538 8.87169 11.8183 8.4821 10.1221L8.44419 9.95708L8.3021 9.86542C8.06085 9.70958 7.91669 9.44833 7.91669 9.16667V7.5C7.91669 7.26625 8.01585 7.04833 8.19585 6.88542L8.33335 6.76167V4.16667L8.3296 4.11208C8.32835 4.10083 8.18669 2.94583 8.99835 2.02C9.68877 1.2325 10.8671 0.833333 12.5 0.833333C14.1271 0.833333 15.3029 1.22958 15.9942 2.01167C16.8054 2.92875 16.6713 4.10208 16.6704 4.11208L16.6667 6.76167L16.8042 6.88583C16.9842 7.04833 17.0834 7.26625 17.0834 7.5V9.16667C17.0834 9.53042 16.845 9.84875 16.4909 9.95792L16.2834 10.0217L16.2167 10.2279C15.9379 11.095 15.5409 11.8958 15.0359 12.6083C14.9121 12.7837 14.7917 12.9392 14.6871 13.0579L14.5834 13.1762V14.895C14.5834 15.6325 14.9929 16.2954 15.6525 16.6254L19.6329 18.6154C20.6304 19.1142 21.25 20.1167 21.25 21.2321V22.5Z" fill="black"/>
</svg>
